<mxfile host="app.diagrams.net" modified="2023-07-30T17:28:59.270Z" agent="Mozilla/5.0 (Windows NT 10.0; Win64; x64; rv:109.0) Gecko/20100101 Firefox/115.0" etag="6sokriQgWGZ-RnncQQAa" version="21.3.7" type="google">
  <diagram id="C5RBs43oDa-KdzZeNtuy" name="Page-1">
    <mxGraphModel grid="1" page="1" gridSize="11" guides="1" tooltips="1" connect="1" arrows="1" fold="1" pageScale="1" pageWidth="827" pageHeight="1169" background="#ffffff" math="0" shadow="0">
      <root>
        <mxCell id="WIyWlLk6GJQsqaUBKTNV-0" />
        <mxCell id="WIyWlLk6GJQsqaUBKTNV-1" parent="WIyWlLk6GJQsqaUBKTNV-0" />
        <mxCell id="V-svkk0l-bg7EejLIaQ4-10" style="edgeStyle=none;curved=1;rounded=1;orthogonalLoop=1;jettySize=auto;html=1;entryX=0;entryY=1;entryDx=0;entryDy=0;fontSize=12;startSize=8;endSize=8;labelBackgroundColor=none;fontColor=default;strokeColor=#09555B;" edge="1" parent="WIyWlLk6GJQsqaUBKTNV-1" source="WIyWlLk6GJQsqaUBKTNV-3" target="ojlzQKIxeHG5KYSOk9se-2">
          <mxGeometry relative="1" as="geometry" />
        </mxCell>
        <mxCell id="WIyWlLk6GJQsqaUBKTNV-3" value="Class &lt;br&gt;dog" style="rounded=1;whiteSpace=wrap;html=1;fontSize=12;glass=0;strokeWidth=1;shadow=0;labelBackgroundColor=none;fillColor=#FAD9D5;strokeColor=#D0CEE2;fontColor=#1A1A1A;" vertex="1" parent="WIyWlLk6GJQsqaUBKTNV-1">
          <mxGeometry x="20" y="360" width="70" height="60" as="geometry" />
        </mxCell>
        <mxCell id="V-svkk0l-bg7EejLIaQ4-11" style="edgeStyle=none;curved=1;rounded=1;orthogonalLoop=1;jettySize=auto;html=1;entryX=0.5;entryY=1;entryDx=0;entryDy=0;fontSize=12;startSize=8;endSize=8;labelBackgroundColor=none;fontColor=default;strokeColor=#09555B;" edge="1" parent="WIyWlLk6GJQsqaUBKTNV-1" source="WIyWlLk6GJQsqaUBKTNV-7" target="ojlzQKIxeHG5KYSOk9se-2">
          <mxGeometry relative="1" as="geometry" />
        </mxCell>
        <mxCell id="WIyWlLk6GJQsqaUBKTNV-7" value="Class &lt;br&gt;cat" style="rounded=1;whiteSpace=wrap;html=1;fontSize=12;glass=0;strokeWidth=1;shadow=0;labelBackgroundColor=none;fillColor=#FAD9D5;strokeColor=#D0CEE2;fontColor=#1A1A1A;" vertex="1" parent="WIyWlLk6GJQsqaUBKTNV-1">
          <mxGeometry x="115" y="360" width="70" height="60" as="geometry" />
        </mxCell>
        <mxCell id="V-svkk0l-bg7EejLIaQ4-12" style="edgeStyle=none;curved=1;rounded=1;orthogonalLoop=1;jettySize=auto;html=1;entryX=1;entryY=1;entryDx=0;entryDy=0;fontSize=12;startSize=8;endSize=8;labelBackgroundColor=none;fontColor=default;strokeColor=#09555B;" edge="1" parent="WIyWlLk6GJQsqaUBKTNV-1" source="ojlzQKIxeHG5KYSOk9se-1" target="ojlzQKIxeHG5KYSOk9se-2">
          <mxGeometry relative="1" as="geometry" />
        </mxCell>
        <mxCell id="ojlzQKIxeHG5KYSOk9se-1" value="Class hamster" style="rounded=1;whiteSpace=wrap;html=1;fontSize=12;glass=0;strokeWidth=1;shadow=0;labelBackgroundColor=none;fillColor=#FAD9D5;strokeColor=#D0CEE2;fontColor=#1A1A1A;" vertex="1" parent="WIyWlLk6GJQsqaUBKTNV-1">
          <mxGeometry x="210" y="360" width="70" height="60" as="geometry" />
        </mxCell>
        <mxCell id="ojlzQKIxeHG5KYSOk9se-30" style="edgeStyle=elbowEdgeStyle;rounded=1;orthogonalLoop=1;jettySize=auto;html=1;entryX=1;entryY=0;entryDx=0;entryDy=0;labelBackgroundColor=none;fontColor=default;strokeColor=#09555B;" edge="1" parent="WIyWlLk6GJQsqaUBKTNV-1" source="ojlzQKIxeHG5KYSOk9se-2">
          <mxGeometry relative="1" as="geometry">
            <mxPoint x="190" y="230" as="targetPoint" />
          </mxGeometry>
        </mxCell>
        <mxCell id="V-svkk0l-bg7EejLIaQ4-5" style="edgeStyle=none;curved=1;rounded=1;orthogonalLoop=1;jettySize=auto;html=1;fontSize=12;startSize=8;endSize=8;entryX=0;entryY=1;entryDx=0;entryDy=0;labelBackgroundColor=none;fontColor=default;strokeColor=#09555B;" edge="1" parent="WIyWlLk6GJQsqaUBKTNV-1" source="ojlzQKIxeHG5KYSOk9se-2" target="V-svkk0l-bg7EejLIaQ4-0">
          <mxGeometry relative="1" as="geometry">
            <mxPoint x="160" y="120" as="targetPoint" />
          </mxGeometry>
        </mxCell>
        <mxCell id="ojlzQKIxeHG5KYSOk9se-2" value="Class pets" style="rounded=1;whiteSpace=wrap;html=1;labelBackgroundColor=none;fillColor=#FAD9D5;strokeColor=#D0CEE2;fontColor=#1A1A1A;" vertex="1" parent="WIyWlLk6GJQsqaUBKTNV-1">
          <mxGeometry x="90" y="200" width="120" height="60" as="geometry" />
        </mxCell>
        <mxCell id="V-svkk0l-bg7EejLIaQ4-7" style="edgeStyle=none;curved=1;rounded=1;orthogonalLoop=1;jettySize=auto;html=1;entryX=1;entryY=1;entryDx=0;entryDy=0;fontSize=12;startSize=8;endSize=8;labelBackgroundColor=none;fontColor=default;strokeColor=#09555B;" edge="1" parent="WIyWlLk6GJQsqaUBKTNV-1" source="ojlzQKIxeHG5KYSOk9se-3" target="V-svkk0l-bg7EejLIaQ4-0">
          <mxGeometry relative="1" as="geometry" />
        </mxCell>
        <mxCell id="ojlzQKIxeHG5KYSOk9se-3" value="Class &lt;br&gt;pack_animals" style="rounded=1;whiteSpace=wrap;html=1;labelBackgroundColor=none;fillColor=#FAD9D5;strokeColor=#D0CEE2;fontColor=#1A1A1A;" vertex="1" parent="WIyWlLk6GJQsqaUBKTNV-1">
          <mxGeometry x="490" y="200" width="120" height="60" as="geometry" />
        </mxCell>
        <mxCell id="V-svkk0l-bg7EejLIaQ4-13" style="edgeStyle=none;curved=1;rounded=1;orthogonalLoop=1;jettySize=auto;html=1;entryX=0;entryY=1;entryDx=0;entryDy=0;fontSize=12;startSize=8;endSize=8;labelBackgroundColor=none;fontColor=default;strokeColor=#09555B;" edge="1" parent="WIyWlLk6GJQsqaUBKTNV-1" source="ojlzQKIxeHG5KYSOk9se-4" target="ojlzQKIxeHG5KYSOk9se-3">
          <mxGeometry relative="1" as="geometry" />
        </mxCell>
        <mxCell id="ojlzQKIxeHG5KYSOk9se-4" value="Class&amp;nbsp;&lt;br&gt;horse" style="rounded=1;whiteSpace=wrap;html=1;fontSize=12;glass=0;strokeWidth=1;shadow=0;labelBackgroundColor=none;fillColor=#FAD9D5;strokeColor=#D0CEE2;fontColor=#1A1A1A;" vertex="1" parent="WIyWlLk6GJQsqaUBKTNV-1">
          <mxGeometry x="395" y="360" width="70" height="60" as="geometry" />
        </mxCell>
        <mxCell id="V-svkk0l-bg7EejLIaQ4-14" style="edgeStyle=none;curved=1;rounded=1;orthogonalLoop=1;jettySize=auto;html=1;entryX=0.5;entryY=1;entryDx=0;entryDy=0;fontSize=12;startSize=8;endSize=8;labelBackgroundColor=none;fontColor=default;strokeColor=#09555B;" edge="1" parent="WIyWlLk6GJQsqaUBKTNV-1" source="ojlzQKIxeHG5KYSOk9se-5" target="ojlzQKIxeHG5KYSOk9se-3">
          <mxGeometry relative="1" as="geometry" />
        </mxCell>
        <mxCell id="ojlzQKIxeHG5KYSOk9se-5" value="Class &lt;br&gt;camel" style="rounded=1;whiteSpace=wrap;html=1;fontSize=12;glass=0;strokeWidth=1;shadow=0;labelBackgroundColor=none;fillColor=#FAD9D5;strokeColor=#D0CEE2;fontColor=#1A1A1A;" vertex="1" parent="WIyWlLk6GJQsqaUBKTNV-1">
          <mxGeometry x="515" y="360" width="70" height="60" as="geometry" />
        </mxCell>
        <mxCell id="V-svkk0l-bg7EejLIaQ4-15" style="edgeStyle=none;curved=1;rounded=1;orthogonalLoop=1;jettySize=auto;html=1;entryX=1;entryY=1;entryDx=0;entryDy=0;fontSize=12;startSize=8;endSize=8;labelBackgroundColor=none;fontColor=default;strokeColor=#09555B;" edge="1" parent="WIyWlLk6GJQsqaUBKTNV-1" source="ojlzQKIxeHG5KYSOk9se-6" target="ojlzQKIxeHG5KYSOk9se-3">
          <mxGeometry relative="1" as="geometry" />
        </mxCell>
        <mxCell id="ojlzQKIxeHG5KYSOk9se-6" value="Class&lt;br&gt;donkey" style="rounded=1;whiteSpace=wrap;html=1;fontSize=12;glass=0;strokeWidth=1;shadow=0;labelBackgroundColor=none;fillColor=#FAD9D5;strokeColor=#D0CEE2;fontColor=#1A1A1A;" vertex="1" parent="WIyWlLk6GJQsqaUBKTNV-1">
          <mxGeometry x="630" y="360" width="60" height="60" as="geometry" />
        </mxCell>
        <mxCell id="ojlzQKIxeHG5KYSOk9se-13" style="edgeStyle=elbowEdgeStyle;rounded=1;orthogonalLoop=1;jettySize=auto;html=1;entryX=0;entryY=0.5;entryDx=0;entryDy=0;labelBackgroundColor=none;fontColor=default;strokeColor=#09555B;" edge="1" parent="WIyWlLk6GJQsqaUBKTNV-1" source="ojlzQKIxeHG5KYSOk9se-1" target="ojlzQKIxeHG5KYSOk9se-1">
          <mxGeometry relative="1" as="geometry" />
        </mxCell>
        <mxCell id="ojlzQKIxeHG5KYSOk9se-19" value="&lt;h1&gt;&lt;div style=&quot;font-weight: 400;&quot; title=&quot;Page 1&quot; class=&quot;page&quot;&gt;&lt;div style=&quot;background-color: rgb(255, 255, 255);&quot; class=&quot;section&quot;&gt;&lt;div class=&quot;layoutArea&quot;&gt;&lt;div class=&quot;column&quot;&gt;&lt;p&gt;&lt;font style=&quot;font-size: 14px;&quot;&gt;6. Нарисовать диаграмму, в которой есть класс родительский класс, домашние животные и вьючные животные, в составы которых в случае домашних животных войдут классы: собаки, кошки, хомяки, а в класс вьючные животные войдут: Лошади, верблюды и ослы).&lt;/font&gt;&lt;/p&gt;&lt;/div&gt;&lt;/div&gt;&lt;/div&gt;&lt;/div&gt;&lt;/h1&gt;" style="text;html=1;strokeColor=none;fillColor=none;spacing=5;spacingTop=-20;whiteSpace=wrap;overflow=hidden;rounded=1;labelBackgroundColor=none;fontColor=#1A1A1A;" vertex="1" parent="WIyWlLk6GJQsqaUBKTNV-1">
          <mxGeometry x="20" y="-88" width="640" height="120" as="geometry" />
        </mxCell>
        <mxCell id="ojlzQKIxeHG5KYSOk9se-32" value="Extend" style="text;html=1;strokeColor=none;fillColor=none;align=center;verticalAlign=middle;whiteSpace=wrap;rounded=1;labelBackgroundColor=none;fontColor=#1A1A1A;" vertex="1" parent="WIyWlLk6GJQsqaUBKTNV-1">
          <mxGeometry x="190" y="160" width="60" height="30" as="geometry" />
        </mxCell>
        <mxCell id="ojlzQKIxeHG5KYSOk9se-34" value="Extend" style="text;html=1;strokeColor=none;fillColor=none;align=center;verticalAlign=middle;whiteSpace=wrap;rounded=1;labelBackgroundColor=none;fontColor=#1A1A1A;" vertex="1" parent="WIyWlLk6GJQsqaUBKTNV-1">
          <mxGeometry x="20" y="300" width="60" height="30" as="geometry" />
        </mxCell>
        <mxCell id="ojlzQKIxeHG5KYSOk9se-35" value="Extend" style="text;html=1;strokeColor=none;fillColor=none;align=center;verticalAlign=middle;whiteSpace=wrap;rounded=1;labelBackgroundColor=none;fontColor=#1A1A1A;" vertex="1" parent="WIyWlLk6GJQsqaUBKTNV-1">
          <mxGeometry x="630" y="300" width="60" height="30" as="geometry" />
        </mxCell>
        <mxCell id="ojlzQKIxeHG5KYSOk9se-36" value="Extend" style="text;html=1;strokeColor=none;fillColor=none;align=center;verticalAlign=middle;whiteSpace=wrap;rounded=1;labelBackgroundColor=none;fontColor=#1A1A1A;" vertex="1" parent="WIyWlLk6GJQsqaUBKTNV-1">
          <mxGeometry x="500" y="300" width="60" height="30" as="geometry" />
        </mxCell>
        <mxCell id="ojlzQKIxeHG5KYSOk9se-37" value="Extend" style="text;html=1;strokeColor=none;fillColor=none;align=center;verticalAlign=middle;whiteSpace=wrap;rounded=1;labelBackgroundColor=none;fontColor=#1A1A1A;" vertex="1" parent="WIyWlLk6GJQsqaUBKTNV-1">
          <mxGeometry x="410" y="300" width="55" height="20" as="geometry" />
        </mxCell>
        <mxCell id="ojlzQKIxeHG5KYSOk9se-39" value="Extend" style="text;html=1;strokeColor=none;fillColor=none;align=center;verticalAlign=middle;whiteSpace=wrap;rounded=1;labelBackgroundColor=none;fontColor=#1A1A1A;" vertex="1" parent="WIyWlLk6GJQsqaUBKTNV-1">
          <mxGeometry x="100" y="300" width="60" height="30" as="geometry" />
        </mxCell>
        <mxCell id="ojlzQKIxeHG5KYSOk9se-40" value="Extend" style="text;html=1;strokeColor=none;fillColor=none;align=center;verticalAlign=middle;whiteSpace=wrap;rounded=1;labelBackgroundColor=none;fontColor=#1A1A1A;" vertex="1" parent="WIyWlLk6GJQsqaUBKTNV-1">
          <mxGeometry x="220" y="300" width="60" height="30" as="geometry" />
        </mxCell>
        <mxCell id="ojlzQKIxeHG5KYSOk9se-41" value="Extend" style="text;html=1;strokeColor=none;fillColor=none;align=center;verticalAlign=middle;whiteSpace=wrap;rounded=1;labelBackgroundColor=none;fontColor=#1A1A1A;" vertex="1" parent="WIyWlLk6GJQsqaUBKTNV-1">
          <mxGeometry x="460" y="160" width="60" height="30" as="geometry" />
        </mxCell>
        <mxCell id="V-svkk0l-bg7EejLIaQ4-0" value="Class human_friends" style="swimlane;fontStyle=0;childLayout=stackLayout;horizontal=1;startSize=50;horizontalStack=0;resizeParent=1;resizeParentMax=0;resizeLast=0;collapsible=1;marginBottom=0;whiteSpace=wrap;html=1;fontSize=16;labelBackgroundColor=none;rounded=1;swimlaneFillColor=none;fillColor=#FAD9D5;strokeColor=#D0CEE2;fontColor=#1A1A1A;" vertex="1" parent="WIyWlLk6GJQsqaUBKTNV-1">
          <mxGeometry x="280" y="80" width="140" height="80" as="geometry" />
        </mxCell>
        <mxCell id="V-svkk0l-bg7EejLIaQ4-8" style="edgeStyle=none;curved=1;rounded=1;orthogonalLoop=1;jettySize=auto;html=1;exitX=0;exitY=0.5;exitDx=0;exitDy=0;fontSize=12;startSize=8;endSize=8;labelBackgroundColor=none;fontColor=default;strokeColor=#09555B;" edge="1" parent="WIyWlLk6GJQsqaUBKTNV-1" source="ojlzQKIxeHG5KYSOk9se-5" target="ojlzQKIxeHG5KYSOk9se-5">
          <mxGeometry relative="1" as="geometry" />
        </mxCell>
      </root>
    </mxGraphModel>
  </diagram>
</mxfile>
